<svg width="16" height="16" viewBox="0 0 16 16" fill="none" xmlns="http://www.w3.org/2000/svg">
<path fill-rule="evenodd" clip-rule="evenodd" d="M10.3641 10.6451H5.85156C5.59281 10.6451 5.38281 10.4351 5.38281 10.1764C5.38281 9.91764 5.59281 9.70764 5.85156 9.70764H10.3641C10.6228 9.70764 10.8328 9.91764 10.8328 10.1764C10.8328 10.4351 10.6228 10.6451 10.3641 10.6451Z" fill="#212121"/>
<path fill-rule="evenodd" clip-rule="evenodd" d="M10.3641 8.02893H5.85156C5.59281 8.02893 5.38281 7.81893 5.38281 7.56018C5.38281 7.30143 5.59281 7.09143 5.85156 7.09143H10.3641C10.6228 7.09143 10.8328 7.30143 10.8328 7.56018C10.8328 7.81893 10.6228 8.02893 10.3641 8.02893Z" fill="#212121"/>
<path fill-rule="evenodd" clip-rule="evenodd" d="M7.57246 5.41785H5.85059C5.59184 5.41785 5.38184 5.20785 5.38184 4.9491C5.38184 4.69035 5.59184 4.48035 5.85059 4.48035H7.57246C7.83121 4.48035 8.04121 4.69035 8.04121 4.9491C8.04121 5.20785 7.83121 5.41785 7.57246 5.41785Z" fill="#212121"/>
<mask id="mask0_129_6356" style="mask-type:luminance" maskUnits="userSpaceOnUse" x="2" y="1" width="12" height="13">
<path fill-rule="evenodd" clip-rule="evenodd" d="M2.41602 1.28699H13.769V13.7306H2.41602V1.28699Z" fill="white"/>
</mask>
<g mask="url(#mask0_129_6356)">
<path fill-rule="evenodd" clip-rule="evenodd" d="M10.4841 2.22327L5.67852 2.22577C4.22352 2.23452 3.35352 3.13452 3.35352 4.63389V10.3814C3.35352 11.8908 4.23164 12.792 5.70102 12.792L10.5066 12.7901C11.9616 12.7814 12.8316 11.8801 12.8316 10.3814V4.63389C12.8316 3.12452 11.9541 2.22327 10.4841 2.22327ZM5.70164 13.7295C3.73664 13.7295 2.41602 12.3839 2.41602 10.3814V4.63389C2.41602 2.61327 3.69539 1.30014 5.67539 1.28827L10.4835 1.28577H10.4841C12.4491 1.28577 13.7691 2.63139 13.7691 4.63389V10.3814C13.7691 12.4014 12.4898 13.7151 10.5098 13.7276L5.70164 13.7295Z" fill="#212121"/>
</g>
</svg>
