<svg width="16" height="16" viewBox="0 0 16 16" fill="none" xmlns="http://www.w3.org/2000/svg">
<path d="M11.8748 6.22924C11.8748 6.05627 11.809 5.89039 11.6918 5.76808C11.5746 5.64577 11.4156 5.57706 11.2498 5.57706H4.00609L5.44359 4.08358C5.56128 3.96078 5.6274 3.79422 5.6274 3.62054C5.6274 3.44687 5.56128 3.2803 5.44359 3.1575C5.3259 3.03469 5.16628 2.9657 4.99984 2.9657C4.8334 2.9657 4.67378 3.03469 4.55609 3.1575L2.05609 5.76619C1.96937 5.8579 1.91062 5.97436 1.88726 6.10088C1.8639 6.22739 1.87698 6.35829 1.92484 6.47706C1.97173 6.59616 2.05135 6.69811 2.15368 6.77007C2.256 6.84203 2.37645 6.88077 2.49984 6.88141H11.2498C11.4156 6.88141 11.5746 6.8127 11.6918 6.69039C11.809 6.56809 11.8748 6.4022 11.8748 6.22924ZM14.3248 8.59011C14.278 8.47101 14.1983 8.36905 14.096 8.2971C13.9937 8.22514 13.8732 8.1864 13.7498 8.18576H4.99984C4.83408 8.18576 4.67511 8.25447 4.5579 8.37678C4.44069 8.49908 4.37484 8.66496 4.37484 8.83793C4.37484 9.0109 4.44069 9.17678 4.5579 9.29909C4.67511 9.4214 4.83408 9.49011 4.99984 9.49011H12.2436L10.8061 10.9836C10.7475 11.0442 10.701 11.1163 10.6693 11.1958C10.6376 11.2753 10.6212 11.3605 10.6212 11.4466C10.6212 11.5327 10.6376 11.618 10.6693 11.6974C10.701 11.7769 10.7475 11.849 10.8061 11.9097C10.8642 11.9708 10.9333 12.0193 11.0095 12.0524C11.0856 12.0855 11.1673 12.1026 11.2498 12.1026C11.3324 12.1026 11.414 12.0855 11.4902 12.0524C11.5664 12.0193 11.6355 11.9708 11.6936 11.9097L14.1936 9.30098C14.2803 9.20926 14.3391 9.0928 14.3624 8.96629C14.3858 8.83977 14.3727 8.70887 14.3248 8.59011Z" fill="#212121"/>
</svg>
